<!DOCTYPE svg PUBLIC "-//W3C//DTD SVG 1.1//EN" "http://www.w3.org/Graphics/SVG/1.1/DTD/svg11.dtd">
<!-- Uploaded to: SVG Repo, www.svgrepo.com, Transformed by: SVG Repo Mixer Tools -->
<svg width="80px" height="80px" viewBox="0 0 24 24" fill="none" xmlns="http://www.w3.org/2000/svg">
<g id="SVGRepo_bgCarrier" stroke-width="0"/>
<g id="SVGRepo_tracerCarrier" stroke-linecap="round" stroke-linejoin="round"/>
<g id="SVGRepo_iconCarrier"> <path d="M16 6.00008V4.2844C16 3.51587 16 3.13161 15.8387 2.88321C15.6976 2.66587 15.4776 2.5118 15.2252 2.45345C14.9366 2.38677 14.5755 2.51809 13.8532 2.78073L6.57982 5.4256C6.01064 5.63257 5.72605 5.73606 5.51615 5.91845C5.33073 6.07956 5.18772 6.28374 5.09968 6.51304C5 6.77264 5 7.07546 5 7.6811V12.0001M9 17.0001H15M9 13.5001H15M9 10.0001H15M8.2 21.0001H15.8C16.9201 21.0001 17.4802 21.0001 17.908 20.7821C18.2843 20.5903 18.5903 20.2844 18.782 19.9081C19 19.4802 19 18.9202 19 17.8001V9.20008C19 8.07997 19 7.51992 18.782 7.0921C18.5903 6.71577 18.2843 6.40981 17.908 6.21807C17.4802 6.00008 16.9201 6.00008 15.8 6.00008H8.2C7.0799 6.00008 6.51984 6.00008 6.09202 6.21807C5.71569 6.40981 5.40973 6.71577 5.21799 7.0921C5 7.51992 5 8.07997 5 9.20008V17.8001C5 18.9202 5 19.4802 5.21799 19.9081C5.40973 20.2844 5.71569 20.5903 6.09202 20.7821C6.51984 21.0001 7.07989 21.0001 8.2 21.0001Z" stroke="#000000" stroke-width="2" stroke-linecap="round" stroke-linejoin="round"/> </g>
</svg>