<svg width="16" height="16" viewBox="0 0 16 16" fill="none" xmlns="http://www.w3.org/2000/svg">
<g clip-path="url(#clip0_1_22)">
<path d="M5.14286 4.5V6H10.8571V4.5C10.8571 3.11875 9.57857 2 8 2C6.42143 2 5.14286 3.11875 5.14286 4.5ZM2.85714 6V4.5C2.85714 2.01562 5.16071 0 8 0C10.8393 0 13.1429 2.01562 13.1429 4.5V6H13.7143C14.975 6 16 6.89687 16 8V14C16 15.1031 14.975 16 13.7143 16H2.28571C1.025 16 0 15.1031 0 14V8C0 6.89687 1.025 6 2.28571 6H2.85714Z" fill="#AAAAAA"/>
</g>
<defs>
<clipPath id="clip0_1_22">
<rect width="16" height="16" fill="white"/>
</clipPath>
</defs>
</svg>
