<!DOCTYPE svg PUBLIC "-//W3C//DTD SVG 1.1//EN" "http://www.w3.org/Graphics/SVG/1.1/DTD/svg11.dtd">
<!-- Uploaded to: SVG Repo, www.svgrepo.com, Transformed by: SVG Repo Mixer Tools -->
<svg fill="#000000" width="800px" height="800px" viewBox="0 0 64.00 64.00" xmlns="http://www.w3.org/2000/svg" stroke="#000000" stroke-width="1.7920000000000003" transform="matrix(1, 0, 0, 1, 0, 0)rotate(0)">
<g id="SVGRepo_bgCarrier" stroke-width="0"/>
<g id="SVGRepo_tracerCarrier" stroke-linecap="round" stroke-linejoin="round"/>
<g id="SVGRepo_iconCarrier"> <g id="a"/> <g id="b"> <path d="M51.7285,36.4062c1.8984-3.1982,2.4277-8.9131,2.9395-14.4404,.1055-1.1445,.2119-2.29,.3291-3.4141,.0146-.1406-.0303-.2812-.126-.3867-.0947-.1045-.2295-.165-.3711-.165H12.4214c-.3232-1.5826-.5772-2.6965-.7154-3.0586-.8213-2.1553-1.8379-2.8047-1.9512-2.8721-.2383-.1387-.5361-.0615-.6787,.1719-.1416,.2334-.0684,.5391,.1631,.6855,.0078,.0049,.8369,.5449,1.5332,2.3701,.5,1.3135,3.0361,15.3633,4.5625,24.459,.6074,3.625,3.7178,6.2559,7.3965,6.2559h.002l29.7666-.0117c.2764,0,.5-.2236,.5-.5s-.2236-.5-.5-.5l-29.7666,.0117h-.002c-3.1875,0-5.8838-2.2803-6.4102-5.4219-.032-.1906-.0656-.3896-.0993-.5898h30.8337c1.9336,0,3.7246-.9941,4.6729-2.5938Zm-.8594-.5098c-.7705,1.2979-2.2314,2.1035-3.8135,2.1035h-4.54l1.8439-9h8.5167c-.4236,2.7786-1.0218,5.2351-2.0071,6.8965Zm-17.8691-7.8965h-9.5862l-1.8444-9h11.4306v9Zm1-9h11.3867l-1.8439,9h-9.5428v-9Zm-1,10v9h-7.5369l-1.8444-9h9.3813Zm1,0h9.3379l-1.8439,9h-7.494v-9Zm19.6719-7.126c-.1915,2.0671-.386,4.1599-.6517,6.126h-8.4557l1.8439-9h7.5379c-.0967,.9492-.1855,1.9121-.2744,2.874Zm-33.1242-2.874l1.8444,9H14.3033c-.5981-3.3286-1.1976-6.5651-1.6805-9h7.9249Zm-6.0652,10h8.1146l1.8444,9h-8.3887c-.4423-2.6015-1-5.8082-1.5703-9Zm13.5176,18c-2.2061,0-4,1.7939-4,4s1.7939,4,4,4,4-1.7939,4-4-1.7939-4-4-4Zm0,7c-1.6543,0-3-1.3457-3-3s1.3457-3,3-3,3,1.3457,3,3-1.3457,3-3,3Zm16-7c-2.2061,0-4,1.7939-4,4s1.7939,4,4,4,4-1.7939,4-4-1.7939-4-4-4Zm0,7c-1.6543,0-3-1.3457-3-3s1.3457-3,3-3,3,1.3457,3,3-1.3457,3-3,3ZM23,14.5c0-.2764,.2236-.5,.5-.5h27c.2764,0,.5,.2236,.5,.5s-.2236,.5-.5,.5H23.5c-.2764,0-.5-.2236-.5-.5Zm6-4c0-.2764,.2236-.5,.5-.5h17c.2764,0,.5,.2236,.5,.5s-.2236,.5-.5,.5H29.5c-.2764,0-.5-.2236-.5-.5ZM9,44.5c0-.2764,.2236-.5,.5-.5h4c.2764,0,.5,.2236,.5,.5s-.2236,.5-.5,.5h-4c-.2764,0-.5-.2236-.5-.5Zm10,4c0,.2764-.2236,.5-.5,.5H9.5c-.2764,0-.5-.2236-.5-.5s.2236-.5,.5-.5h9c.2764,0,.5,.2236,.5,.5Zm0,4c0,.2764-.2236,.5-.5,.5h-5c-.2764,0-.5-.2236-.5-.5s.2236-.5,.5-.5h5c.2764,0,.5,.2236,.5,.5Z"/> </g> </g>
</svg>